<svg width="40" height="40" viewBox="0 0 40 40" fill="none" xmlns="http://www.w3.org/2000/svg">
    <rect width="40" height="40" fill="black"/>
    <path d="M6.42 15.464C6.42 15.456 6.416 15.448 6.408 15.44C6.4 15.424 6.388 15.416 6.372 15.416C6.356 15.408 6.34 15.4 6.324 15.392C6.308 15.384 6.284 15.38 6.252 15.38C6.22 15.372 6.192 15.368 6.168 15.368C6.144 15.368 6.112 15.368 6.072 15.368C6.032 15.368 5.996 15.368 5.964 15.368C5.94 15.36 5.904 15.356 5.856 15.356C5.808 15.356 5.768 15.356 5.736 15.356C5.544 15.356 5.428 15.352 5.388 15.344C5.348 15.336 5.32 15.312 5.304 15.272C5.288 15.248 5.292 15.176 5.316 15.056C5.356 14.904 5.392 14.824 5.424 14.816C5.448 14.808 5.508 14.804 5.604 14.804C6.036 14.828 6.544 14.84 7.128 14.84C7.24 14.84 7.4 14.84 7.608 14.84C7.816 14.832 7.968 14.828 8.064 14.828C8.184 14.828 8.328 14.828 8.496 14.828C8.672 14.82 8.804 14.816 8.892 14.816C8.988 14.808 9.048 14.804 9.072 14.804H9.216C9.264 14.852 9.288 14.888 9.288 14.912C9.296 14.928 9.288 15 9.264 15.128C9.232 15.24 9.196 15.316 9.156 15.356H8.7C8.148 15.364 7.824 15.4 7.728 15.464C7.672 15.496 7.616 15.612 7.56 15.812C7.504 16.004 7.236 17.056 6.756 18.968C6.628 19.488 6.492 20.044 6.348 20.636C6.204 21.22 6.096 21.656 6.024 21.944L5.916 22.376C5.916 22.408 5.952 22.428 6.024 22.436C6.096 22.436 6.332 22.44 6.732 22.448C7.332 22.448 7.756 22.428 8.004 22.388C8.26 22.348 8.54 22.24 8.844 22.064C9.164 21.88 9.42 21.636 9.612 21.332C9.812 21.02 10.008 20.608 10.2 20.096C10.256 19.936 10.3 19.824 10.332 19.76C10.372 19.736 10.44 19.724 10.536 19.724H10.692C10.74 19.796 10.764 19.84 10.764 19.856C10.764 19.872 10.68 20.108 10.512 20.564C10.352 21.02 10.18 21.504 9.996 22.016C9.812 22.52 9.708 22.812 9.684 22.892C9.66 22.94 9.64 22.968 9.624 22.976C9.6 22.992 8.568 23 6.528 23C4.488 23 3.456 22.992 3.432 22.976C3.376 22.944 3.368 22.856 3.408 22.712C3.408 22.704 3.412 22.688 3.42 22.664C3.46 22.536 3.504 22.468 3.552 22.46C3.576 22.452 3.628 22.448 3.708 22.448H3.78C3.996 22.448 4.236 22.436 4.5 22.412C4.612 22.388 4.688 22.34 4.728 22.268C4.752 22.236 5.04 21.124 5.592 18.932C6.144 16.74 6.42 15.584 6.42 15.464ZM16.556 18.272C16.556 18.376 16.404 19.02 16.1 20.204C15.804 21.38 15.656 22.04 15.656 22.184C15.656 22.52 15.768 22.688 15.992 22.688C16.064 22.68 16.144 22.644 16.232 22.58C16.4 22.42 16.564 22.036 16.724 21.428C16.772 21.268 16.812 21.184 16.844 21.176C16.86 21.168 16.9 21.164 16.964 21.164H17.012C17.164 21.164 17.24 21.196 17.24 21.26C17.24 21.292 17.228 21.356 17.204 21.452C17.028 22.124 16.812 22.588 16.556 22.844C16.372 23.028 16.148 23.12 15.884 23.12C15.38 23.12 15.028 22.924 14.828 22.532C14.788 22.428 14.768 22.38 14.768 22.388C14.76 22.38 14.744 22.384 14.72 22.4C14.704 22.416 14.688 22.432 14.672 22.448C14.288 22.808 13.908 23.028 13.532 23.108C13.484 23.116 13.384 23.12 13.232 23.12C12.704 23.12 12.268 22.9 11.924 22.46C11.684 22.108 11.564 21.66 11.564 21.116C11.564 20.988 11.568 20.9 11.576 20.852C11.632 20.34 11.796 19.852 12.068 19.388C12.348 18.916 12.68 18.536 13.064 18.248C13.528 17.888 14.016 17.708 14.528 17.708C14.928 17.708 15.288 17.904 15.608 18.296C15.736 18.056 15.92 17.936 16.16 17.936C16.264 17.936 16.356 17.968 16.436 18.032C16.516 18.096 16.556 18.176 16.556 18.272ZM12.584 21.728C12.584 22.016 12.644 22.248 12.764 22.424C12.892 22.6 13.076 22.688 13.316 22.688C13.548 22.688 13.796 22.592 14.06 22.4C14.156 22.336 14.284 22.216 14.444 22.04C14.612 21.864 14.712 21.744 14.744 21.68C14.76 21.648 14.868 21.22 15.068 20.396C15.276 19.572 15.38 19.128 15.38 19.064C15.38 18.968 15.336 18.832 15.248 18.656C15.072 18.312 14.82 18.14 14.492 18.14C14.172 18.14 13.888 18.276 13.64 18.548C13.4 18.82 13.216 19.132 13.088 19.484C12.856 20.116 12.692 20.772 12.596 21.452C12.596 21.476 12.592 21.52 12.584 21.584C12.584 21.648 12.584 21.696 12.584 21.728ZM22.4995 23C22.2835 23 21.9235 22.996 21.4195 22.988C20.9235 22.98 20.5355 22.976 20.2555 22.976C19.2235 22.976 18.5675 22.984 18.2875 23H18.1075C18.0595 22.952 18.0315 22.92 18.0235 22.904C18.0235 22.88 18.0355 22.804 18.0595 22.676C18.0915 22.572 18.1315 22.496 18.1795 22.448H18.5155C18.9955 22.448 19.3195 22.436 19.4875 22.412C19.6235 22.404 19.7235 22.38 19.7875 22.34C19.7955 22.332 19.8035 22.328 19.8115 22.328C19.8515 22.304 19.8915 22.224 19.9315 22.088C19.9715 21.944 20.1315 21.316 20.4115 20.204C20.5475 19.66 20.6595 19.216 20.7475 18.872C21.3075 16.672 21.5875 15.548 21.5875 15.5C21.5875 15.46 21.4715 15.44 21.2395 15.44H20.8675C20.3315 15.44 19.9795 15.464 19.8115 15.512C19.4675 15.584 19.2075 15.724 19.0315 15.932C18.8155 16.172 18.5795 16.66 18.3235 17.396C18.2675 17.572 18.2275 17.676 18.2035 17.708C18.1795 17.74 18.1235 17.756 18.0355 17.756H17.9995C17.8955 17.756 17.8315 17.744 17.8075 17.72C17.7835 17.696 17.7715 17.676 17.7715 17.66C17.7715 17.612 17.8915 17.228 18.1315 16.508C18.3075 15.956 18.4555 15.516 18.5755 15.188C18.6235 15.036 18.6755 14.932 18.7315 14.876H24.3475C25.4115 14.892 25.9475 14.916 25.9555 14.948L25.9675 14.96C25.9675 14.976 25.9675 14.988 25.9675 14.996C25.9675 15.044 25.8955 15.5 25.7515 16.364C25.6155 17.228 25.5435 17.664 25.5355 17.672C25.5355 17.696 25.5195 17.716 25.4875 17.732C25.4715 17.748 25.4115 17.756 25.3075 17.756C25.2595 17.756 25.2195 17.756 25.1875 17.756C25.1635 17.748 25.1475 17.744 25.1395 17.744C25.1315 17.736 25.1195 17.724 25.1035 17.708C25.0875 17.684 25.0755 17.668 25.0675 17.66C25.0675 17.604 25.0795 17.496 25.1035 17.336C25.1755 16.904 25.2115 16.588 25.2115 16.388C25.2115 16.204 25.1875 16.052 25.1395 15.932C25.0915 15.812 25.0355 15.72 24.9715 15.656C24.9155 15.592 24.8075 15.544 24.6475 15.512C24.4955 15.48 24.3635 15.46 24.2515 15.452C24.1395 15.444 23.9555 15.436 23.6995 15.428C23.3315 15.428 23.0955 15.436 22.9915 15.452C22.8955 15.46 22.8275 15.488 22.7875 15.536C22.7795 15.544 22.4955 16.664 21.9355 18.896C21.3755 21.12 21.0955 22.248 21.0955 22.28C21.0955 22.336 21.1475 22.372 21.2515 22.388C21.3635 22.42 21.6635 22.44 22.1515 22.448C22.4235 22.448 22.5835 22.452 22.6315 22.46C22.6875 22.468 22.7235 22.492 22.7395 22.532C22.7475 22.556 22.7395 22.624 22.7155 22.736C22.7075 22.76 22.6995 22.788 22.6915 22.82C22.6915 22.844 22.6875 22.864 22.6795 22.88C22.6795 22.888 22.6755 22.904 22.6675 22.928C22.6595 22.944 22.6515 22.956 22.6435 22.964C22.6435 22.964 22.6395 22.968 22.6315 22.976C22.6235 22.984 22.6115 22.992 22.5955 23C22.5875 23 22.5755 23 22.5595 23C22.5435 23 22.5235 23 22.4995 23ZM26.9873 23.132C26.3793 23.132 25.8953 22.932 25.5353 22.532C25.1753 22.132 24.9953 21.616 24.9953 20.984C24.9953 20.68 25.0273 20.38 25.0913 20.084C25.2593 19.46 25.6033 18.928 26.1233 18.488C26.6513 18.048 27.2833 17.788 28.0193 17.708C28.0273 17.7 28.0913 17.696 28.2113 17.696H28.2473C28.5833 17.696 28.8673 17.772 29.0993 17.924C29.3393 18.068 29.4953 18.268 29.5673 18.524C29.5753 18.556 29.5793 18.628 29.5793 18.74C29.5793 18.884 29.5713 18.984 29.5553 19.04C29.3873 19.608 28.9513 19.98 28.2473 20.156C27.8553 20.26 27.3193 20.316 26.6393 20.324C26.3433 20.324 26.1913 20.332 26.1833 20.348C26.1833 20.356 26.1753 20.408 26.1593 20.504C26.0713 20.896 26.0273 21.216 26.0273 21.464C26.0273 21.84 26.1113 22.14 26.2793 22.364C26.4473 22.58 26.6993 22.688 27.0353 22.688C27.9313 22.688 28.6713 22.348 29.2553 21.668C29.3273 21.588 29.3753 21.548 29.3993 21.548C29.4313 21.548 29.4833 21.584 29.5553 21.656C29.6513 21.752 29.6873 21.82 29.6633 21.86C29.6313 21.948 29.5113 22.084 29.3033 22.268C28.6473 22.844 27.8753 23.132 26.9873 23.132ZM29.0033 18.764C28.9553 18.348 28.6833 18.14 28.1873 18.14C27.9073 18.14 27.6193 18.22 27.3233 18.38C26.9313 18.612 26.6393 18.976 26.4473 19.472C26.3593 19.712 26.3153 19.844 26.3153 19.868C26.3153 19.876 26.3953 19.88 26.5553 19.88C26.8193 19.88 27.0633 19.872 27.2873 19.856C27.7593 19.816 28.1113 19.748 28.3433 19.652C28.5753 19.556 28.7673 19.396 28.9193 19.172C28.9753 19.052 29.0033 18.916 29.0033 18.764ZM30.8132 19.664C30.7652 19.616 30.7412 19.572 30.7412 19.532C30.7732 19.316 30.8972 19.04 31.1132 18.704C31.4892 18.136 31.9612 17.808 32.5292 17.72C32.6412 17.704 32.7252 17.696 32.7812 17.696C33.0612 17.696 33.3172 17.768 33.5492 17.912C33.7892 18.056 33.9612 18.236 34.0652 18.452C34.1692 18.316 34.2332 18.232 34.2572 18.2C34.5532 17.864 34.8932 17.696 35.2772 17.696C35.6052 17.696 35.8692 17.792 36.0692 17.984C36.2772 18.168 36.3812 18.396 36.3812 18.668C36.3812 18.916 36.3092 19.124 36.1652 19.292C36.0292 19.46 35.8452 19.544 35.6132 19.544C35.4612 19.544 35.3372 19.5 35.2412 19.412C35.1452 19.324 35.0972 19.208 35.0972 19.064C35.0972 18.696 35.2972 18.444 35.6972 18.308C35.6972 18.3 35.6532 18.272 35.5652 18.224C35.4852 18.176 35.3692 18.152 35.2172 18.152C35.1132 18.152 35.0372 18.16 34.9892 18.176C34.6852 18.304 34.4612 18.568 34.3172 18.968C34.2932 19.032 34.1772 19.48 33.9692 20.312C33.7612 21.136 33.6492 21.6 33.6332 21.704C33.6092 21.824 33.5972 21.944 33.5972 22.064C33.5972 22.256 33.6532 22.408 33.7652 22.52C33.8772 22.632 34.0252 22.688 34.2092 22.688C34.5452 22.688 34.8492 22.548 35.1212 22.268C35.3932 21.98 35.5772 21.664 35.6732 21.32C35.6972 21.24 35.7212 21.196 35.7452 21.188C35.7692 21.172 35.8332 21.164 35.9372 21.164C36.0892 21.164 36.1652 21.196 36.1652 21.26C36.1652 21.268 36.1572 21.312 36.1412 21.392C36.0052 21.888 35.7252 22.32 35.3012 22.688C34.9252 22.984 34.5292 23.132 34.1132 23.132C33.5532 23.132 33.1292 22.88 32.8412 22.376C32.6092 22.736 32.3132 22.976 31.9532 23.096C31.8812 23.112 31.7772 23.12 31.6412 23.12C31.1772 23.12 30.8492 22.956 30.6572 22.628C30.5772 22.492 30.5372 22.332 30.5372 22.148C30.5372 21.908 30.6092 21.704 30.7532 21.536C30.8972 21.368 31.0812 21.284 31.3052 21.284C31.6492 21.284 31.8212 21.452 31.8212 21.788C31.8212 22.084 31.6812 22.3 31.4012 22.436C31.3852 22.444 31.3652 22.456 31.3412 22.472C31.3172 22.48 31.2972 22.488 31.2812 22.496C31.2652 22.504 31.2532 22.508 31.2452 22.508L31.2092 22.52C31.2092 22.544 31.2692 22.58 31.3892 22.628C31.4852 22.668 31.5892 22.688 31.7012 22.688C31.9892 22.688 32.2372 22.508 32.4452 22.148C32.5332 22.004 32.6892 21.484 32.9132 20.588C32.9612 20.404 33.0132 20.2 33.0692 19.976C33.1252 19.752 33.1652 19.58 33.1892 19.46C33.2212 19.34 33.2412 19.268 33.2492 19.244C33.2892 19.028 33.3092 18.872 33.3092 18.776C33.3092 18.584 33.2572 18.432 33.1532 18.32C33.0492 18.208 32.9052 18.152 32.7212 18.152C32.3612 18.152 32.0492 18.292 31.7852 18.572C31.5212 18.844 31.3372 19.16 31.2332 19.52C31.2172 19.592 31.1972 19.636 31.1732 19.652C31.1572 19.66 31.0932 19.664 30.9812 19.664H30.8132Z" fill="white"/>
</svg>
