<svg width="13" height="13" viewBox="0 0 13 13" fill="none" xmlns="http://www.w3.org/2000/svg">
    <path fill-rule="evenodd" clip-rule="evenodd" d="M5.63294 1.848C5.64361 1.85867 5.64894 1.86933 5.64894 1.88C5.64894 2.04 5.28094 3.58133 4.54494 6.504C3.80894 9.42667 3.42494 10.9093 3.39294 10.952C3.33961 11.048 3.23828 11.112 3.08894 11.144C2.73694 11.176 2.41694 11.192 2.12894 11.192H2.03294C1.92628 11.192 1.85694 11.1973 1.82494 11.208C1.76094 11.2187 1.70228 11.3093 1.64894 11.48C1.63828 11.512 1.63294 11.5333 1.63294 11.544C1.57961 11.736 1.59028 11.8533 1.66494 11.896C1.69694 11.9173 3.07294 11.928 5.79294 11.928C8.51294 11.928 9.88894 11.9173 9.92094 11.896C9.94228 11.8853 9.96894 11.848 10.0009 11.784C10.0329 11.6773 10.1716 11.288 10.4169 10.616C10.6623 9.93333 10.8916 9.288 11.1049 8.68C11.3289 8.072 11.4409 7.75733 11.4409 7.736C11.4409 7.71467 11.4089 7.656 11.3449 7.56H11.1369C11.0089 7.56 10.9183 7.576 10.8649 7.608C10.8223 7.69333 10.7636 7.84267 10.6889 8.056C10.4329 8.73867 10.1716 9.288 9.90494 9.704C9.64894 10.1093 9.30761 10.4347 8.88094 10.68C8.47561 10.9147 8.10228 11.0587 7.76094 11.112C7.43028 11.1653 6.86494 11.192 6.06494 11.192C5.53161 11.1813 5.21694 11.176 5.12094 11.176C5.02494 11.1653 4.97694 11.1387 4.97694 11.096L5.12094 10.52C5.21694 10.136 5.36094 9.55467 5.55294 8.776C5.74494 7.98667 5.92628 7.24533 6.09694 6.552C6.73694 4.00267 7.09428 2.6 7.16894 2.344C7.24361 2.07733 7.31828 1.92267 7.39294 1.88C7.52094 1.79467 7.95294 1.74667 8.68894 1.736H9.29694C9.35028 1.68267 9.39828 1.58133 9.44094 1.432C9.47294 1.26133 9.48361 1.16533 9.47294 1.144C9.47294 1.112 9.44094 1.064 9.37694 1H9.18494C9.15294 1 9.07294 1.00533 8.94494 1.016C8.82761 1.016 8.65161 1.02133 8.41694 1.032H7.84094C7.71294 1.032 7.51028 1.03733 7.23294 1.048H6.59294C5.81428 1.048 5.13694 1.032 4.56094 1C4.43294 1 4.35294 1.00533 4.32094 1.016C4.27828 1.02667 4.23028 1.13333 4.17694 1.336C4.14494 1.496 4.13961 1.592 4.16094 1.624C4.18228 1.67733 4.21961 1.70933 4.27294 1.72C4.32628 1.73067 4.48094 1.736 4.73694 1.736H4.89694C4.96094 1.736 5.00894 1.74133 5.04094 1.752H5.18494H5.31294C5.34494 1.752 5.38228 1.75733 5.42494 1.768C5.46761 1.768 5.49961 1.77333 5.52094 1.784L5.58494 1.816C5.60628 1.816 5.62228 1.82667 5.63294 1.848Z" fill="#AFB1B3"/>
</svg>
